<svg data-v-423bf9ae="" xmlns="http://www.w3.org/2000/svg" viewBox="0 0 538 112" class="iconLeft"><!----><!----><!----><g data-v-423bf9ae="" id="75266a8f-60fb-4bc1-984c-cf6afcd0088e" fill="black" transform="matrix(7.792998313903809,0,0,7.792998313903809,125.7316665649414,-21.354639053344727)"><path d="M6.66 12.01L7.08 12.42L7.08 12.42Q6.58 13.03 5.78 13.38L5.78 13.38L5.78 13.38Q4.98 13.72 4.06 13.72L4.06 13.72L4.06 13.72Q3.32 13.72 2.69 13.45L2.69 13.45L2.69 13.45Q2.07 13.17 1.62 12.68L1.62 12.68L1.62 12.68Q1.18 12.18 0.93 11.48L0.93 11.48L0.93 11.48Q0.69 10.78 0.69 9.93L0.69 9.93L0.69 9.93Q0.69 9.03 0.97 8.31L0.97 8.31L0.97 8.31Q1.25 7.59 1.76 7.08L1.76 7.08L1.76 7.08Q2.27 6.57 2.99 6.29L2.99 6.29L2.99 6.29Q3.71 6.02 4.58 6.02L4.58 6.02L4.58 6.02Q5.12 6.02 5.57 6.11L5.57 6.11L5.57 6.11Q6.02 6.20 6.35 6.36L6.35 6.36L6.35 6.36Q6.68 6.52 6.86 6.75L6.86 6.75L6.86 6.75Q7.04 6.99 7.04 7.25L7.04 7.25L7.04 7.25Q7.04 7.53 6.86 7.69L6.86 7.69L6.86 7.69Q6.68 7.84 6.36 7.84L6.36 7.84L6.36 7.84Q6.10 7.84 5.94 7.74L5.94 7.74L5.94 7.74Q5.77 7.63 5.50 7.27L5.50 7.27L5.50 7.27Q5.22 6.94 4.96 6.81L4.96 6.81L4.96 6.81Q4.70 6.68 4.30 6.68L4.30 6.68L4.30 6.68Q3.30 6.68 2.79 7.45L2.79 7.45L2.79 7.45Q2.28 8.22 2.28 9.72L2.28 9.72L2.28 9.72Q2.28 11.33 2.85 12.16L2.85 12.16L2.85 12.16Q3.42 12.99 4.51 12.99L4.51 12.99L4.51 12.99Q5.10 12.99 5.61 12.76L5.61 12.76L5.61 12.76Q6.13 12.53 6.66 12.01L6.66 12.01ZM12.05 6.02L12.05 6.02L12.05 6.02Q12.85 6.02 13.57 6.31L13.57 6.31L13.57 6.31Q14.28 6.59 14.82 7.10L14.82 7.10L14.82 7.10Q15.36 7.60 15.67 8.29L15.67 8.29L15.67 8.29Q15.99 8.99 15.99 9.81L15.99 9.81L15.99 9.81Q15.99 10.67 15.67 11.38L15.67 11.38L15.67 11.38Q15.36 12.10 14.82 12.61L14.82 12.61L14.82 12.61Q14.28 13.13 13.57 13.43L13.57 13.43L13.57 13.43Q12.85 13.72 12.05 13.72L12.05 13.72L12.05 13.72Q11.27 13.72 10.56 13.43L10.56 13.43L10.56 13.43Q9.86 13.15 9.32 12.63L9.32 12.63L9.32 12.63Q8.79 12.11 8.48 11.39L8.48 11.39L8.48 11.39Q8.18 10.67 8.18 9.81L8.18 9.81L8.18 9.81Q8.18 8.99 8.48 8.29L8.48 8.29L8.48 8.29Q8.79 7.59 9.32 7.08L9.32 7.08L9.32 7.08Q9.86 6.58 10.56 6.30L10.56 6.30L10.56 6.30Q11.27 6.02 12.05 6.02ZM12.05 6.69L12.05 6.69L12.05 6.69Q11.54 6.69 11.11 6.92L11.11 6.92L11.11 6.92Q10.68 7.14 10.38 7.55L10.38 7.55L10.38 7.55Q10.08 7.97 9.92 8.55L9.92 8.55L9.92 8.55Q9.76 9.13 9.76 9.83L9.76 9.83L9.76 9.83Q9.76 10.56 9.92 11.14L9.92 11.14L9.92 11.14Q10.08 11.73 10.38 12.14L10.38 12.14L10.38 12.14Q10.68 12.56 11.10 12.78L11.10 12.78L11.10 12.78Q11.52 13.01 12.05 13.01L12.05 13.01L12.05 13.01Q12.59 13.01 13.02 12.78L13.02 12.78L13.02 12.78Q13.45 12.56 13.76 12.14L13.76 12.14L13.76 12.14Q14.07 11.72 14.24 11.13L14.24 11.13L14.24 11.13Q14.41 10.54 14.41 9.83L14.41 9.83L14.41 9.83Q14.41 9.13 14.24 8.55L14.24 8.55L14.24 8.55Q14.07 7.98 13.76 7.57L13.76 7.57L13.76 7.57Q13.45 7.15 13.02 6.92L13.02 6.92L13.02 6.92Q12.59 6.69 12.05 6.69ZM18.14 13.09L17.86 13.58L17.56 13.58L17.56 11.17L17.91 11.17L17.91 11.17Q18.45 13.15 19.89 13.15L19.89 13.15L19.89 13.15Q20.45 13.15 20.78 12.87L20.78 12.87L20.78 12.87Q21.11 12.60 21.11 12.04L21.11 12.04L21.11 12.04Q21.11 11.83 21.05 11.68L21.05 11.68L21.05 11.68Q20.99 11.54 20.81 11.38L20.81 11.38L20.81 11.38Q20.64 11.21 20.32 11.00L20.32 11.00L20.32 11.00Q20.01 10.79 19.49 10.47L19.49 10.47L19.49 10.47Q19.01 10.18 18.66 9.93L18.66 9.93L18.66 9.93Q18.31 9.67 18.07 9.41L18.07 9.41L18.07 9.41Q17.84 9.16 17.72 8.86L17.72 8.86L17.72 8.86Q17.60 8.57 17.60 8.18L17.60 8.18L17.60 8.18Q17.60 7.70 17.76 7.30L17.76 7.30L17.76 7.30Q17.92 6.90 18.20 6.62L18.20 6.62L18.20 6.62Q18.48 6.34 18.86 6.18L18.86 6.18L18.86 6.18Q19.24 6.02 19.68 6.02L19.68 6.02L19.68 6.02Q20.06 6.02 20.47 6.14L20.47 6.14L20.47 6.14Q20.87 6.26 21.18 6.45L21.18 6.45L21.46 6.16L21.73 6.16L21.73 8.18L21.36 8.18L21.36 8.18Q21.06 7.32 20.69 6.96L20.69 6.96L20.69 6.96Q20.33 6.59 19.80 6.59L19.80 6.59L19.80 6.59Q19.32 6.59 19.03 6.85L19.03 6.85L19.03 6.85Q18.75 7.10 18.75 7.55L18.75 7.55L18.75 7.55Q18.75 7.78 18.82 7.96L18.82 7.96L18.82 7.96Q18.90 8.13 19.07 8.30L19.07 8.30L19.07 8.30Q19.24 8.47 19.50 8.64L19.50 8.64L19.50 8.64Q19.75 8.82 20.12 9.04L20.12 9.04L20.12 9.04Q20.72 9.42 21.15 9.72L21.15 9.72L21.15 9.72Q21.57 10.01 21.84 10.30L21.84 10.30L21.84 10.30Q22.11 10.58 22.23 10.89L22.23 10.89L22.23 10.89Q22.36 11.20 22.36 11.59L22.36 11.59L22.36 11.59Q22.36 12.59 21.71 13.15L21.71 13.15L21.71 13.15Q21.07 13.72 20.02 13.72L20.02 13.72L20.02 13.72Q18.93 13.72 18.14 13.09L18.14 13.09ZM26.11 9.56L26.11 11.34L26.11 11.34Q26.11 11.93 26.14 12.26L26.14 12.26L26.14 12.26Q26.17 12.60 26.28 12.78L26.28 12.78L26.28 12.78Q26.40 12.95 26.63 13.01L26.63 13.01L26.63 13.01Q26.85 13.06 27.26 13.09L27.26 13.09L27.26 13.58L23.53 13.58L23.53 13.09L23.53 13.09Q23.94 13.06 24.18 13.01L24.18 13.01L24.18 13.01Q24.42 12.95 24.54 12.78L24.54 12.78L24.54 12.78Q24.67 12.61 24.70 12.30L24.70 12.30L24.70 12.30Q24.74 11.98 24.74 11.45L24.74 11.45L24.74 9.66L24.74 9.66Q24.74 8.86 24.72 8.33L24.72 8.33L24.72 8.33Q24.70 7.80 24.64 7.60L24.64 7.60L24.64 7.60Q24.60 7.42 24.54 7.31L24.54 7.31L24.54 7.31Q24.49 7.21 24.36 7.15L24.36 7.15L24.36 7.15Q24.23 7.08 24.03 7.06L24.03 7.06L24.03 7.06Q23.83 7.04 23.51 7.04L23.51 7.04L23.51 6.55L25.79 6.02L25.97 7.42L26.04 7.42L26.04 7.42Q26.67 6.71 27.36 6.36L27.36 6.36L27.36 6.36Q28.06 6.02 28.90 6.02L28.90 6.02L28.90 6.02Q29.78 6.02 30.38 6.38L30.38 6.38L30.38 6.38Q30.98 6.73 31.22 7.41L31.22 7.41L31.28 7.41L31.28 7.41Q31.79 6.75 32.54 6.38L32.54 6.38L32.54 6.38Q33.28 6.02 34.12 6.02L34.12 6.02L34.12 6.02Q34.78 6.02 35.31 6.24L35.31 6.24L35.31 6.24Q35.85 6.45 36.13 6.83L36.13 6.83L36.13 6.83Q36.39 7.15 36.49 7.68L36.49 7.68L36.49 7.68Q36.60 8.20 36.60 9.11L36.60 9.11L36.60 11.34L36.60 11.34Q36.60 11.91 36.63 12.25L36.63 12.25L36.63 12.25Q36.67 12.59 36.78 12.77L36.78 12.77L36.78 12.77Q36.89 12.95 37.12 13.01L37.12 13.01L37.12 13.01Q37.35 13.06 37.76 13.09L37.76 13.09L37.76 13.58L34.03 13.58L34.03 13.09L34.03 13.09Q34.43 13.08 34.66 13.01L34.66 13.01L34.66 13.01Q34.90 12.95 35.03 12.78L35.03 12.78L35.03 12.78Q35.15 12.60 35.19 12.29L35.19 12.29L35.19 12.29Q35.22 11.98 35.22 11.45L35.22 11.45L35.22 9.69L35.22 9.69Q35.22 8.89 35.14 8.34L35.14 8.34L35.14 8.34Q35.06 7.78 34.86 7.44L34.86 7.44L34.86 7.44Q34.66 7.10 34.35 6.94L34.35 6.94L34.35 6.94Q34.03 6.79 33.59 6.79L33.59 6.79L33.59 6.79Q32.97 6.79 32.43 7.13L32.43 7.13L32.43 7.13Q31.89 7.48 31.58 8.05L31.58 8.05L31.58 8.05Q31.51 8.19 31.46 8.32L31.46 8.32L31.46 8.32Q31.42 8.46 31.39 8.62L31.39 8.62L31.39 8.62Q31.36 8.78 31.35 9.00L31.35 9.00L31.35 9.00Q31.35 9.23 31.35 9.56L31.35 9.56L31.35 11.34L31.35 11.34Q31.35 11.91 31.37 12.25L31.37 12.25L31.37 12.25Q31.40 12.59 31.52 12.77L31.52 12.77L31.52 12.77Q31.64 12.95 31.88 13.01L31.88 13.01L31.88 13.01Q32.12 13.06 32.52 13.09L32.52 13.09L32.52 13.58L28.80 13.58L28.80 13.09L28.80 13.09Q29.19 13.06 29.43 13.01L29.43 13.01L29.43 13.01Q29.67 12.95 29.78 12.78L29.78 12.78L29.78 12.78Q29.90 12.61 29.94 12.30L29.94 12.30L29.94 12.30Q29.97 11.98 29.97 11.45L29.97 11.45L29.97 9.69L29.97 9.69Q29.97 8.88 29.89 8.32L29.89 8.32L29.89 8.32Q29.81 7.77 29.62 7.43L29.62 7.43L29.62 7.43Q29.43 7.08 29.12 6.94L29.12 6.94L29.12 6.94Q28.81 6.79 28.36 6.79L28.36 6.79L28.36 6.79Q27.73 6.79 27.18 7.13L27.18 7.13L27.18 7.13Q26.63 7.48 26.35 8.05L26.35 8.05L26.35 8.05Q26.28 8.19 26.23 8.32L26.23 8.32L26.23 8.32Q26.18 8.46 26.15 8.62L26.15 8.62L26.15 8.62Q26.12 8.78 26.12 9.00L26.12 9.00L26.12 9.00Q26.11 9.23 26.11 9.56L26.11 9.56ZM42.59 6.02L42.59 6.02L42.59 6.02Q43.39 6.02 44.10 6.31L44.10 6.31L44.10 6.31Q44.81 6.59 45.35 7.10L45.35 7.10L45.35 7.10Q45.89 7.60 46.21 8.29L46.21 8.29L46.21 8.29Q46.52 8.99 46.52 9.81L46.52 9.81L46.52 9.81Q46.52 10.67 46.21 11.38L46.21 11.38L46.21 11.38Q45.89 12.10 45.35 12.61L45.35 12.61L45.35 12.61Q44.81 13.13 44.10 13.43L44.10 13.43L44.10 13.43Q43.39 13.72 42.59 13.72L42.59 13.72L42.59 13.72Q41.80 13.72 41.10 13.43L41.10 13.43L41.10 13.43Q40.39 13.15 39.86 12.63L39.86 12.63L39.86 12.63Q39.33 12.11 39.02 11.39L39.02 11.39L39.02 11.39Q38.71 10.67 38.71 9.81L38.71 9.81L38.71 9.81Q38.71 8.99 39.02 8.29L39.02 8.29L39.02 8.29Q39.33 7.59 39.86 7.08L39.86 7.08L39.86 7.08Q40.39 6.58 41.10 6.30L41.10 6.30L41.10 6.30Q41.80 6.02 42.59 6.02ZM42.59 6.69L42.59 6.69L42.59 6.69Q42.07 6.69 41.64 6.92L41.64 6.92L41.64 6.92Q41.22 7.14 40.91 7.55L40.91 7.55L40.91 7.55Q40.61 7.97 40.45 8.55L40.45 8.55L40.45 8.55Q40.29 9.13 40.29 9.83L40.29 9.83L40.29 9.83Q40.29 10.56 40.45 11.14L40.45 11.14L40.45 11.14Q40.61 11.73 40.91 12.14L40.91 12.14L40.91 12.14Q41.22 12.56 41.64 12.78L41.64 12.78L41.64 12.78Q42.06 13.01 42.59 13.01L42.59 13.01L42.59 13.01Q43.12 13.01 43.55 12.78L43.55 12.78L43.55 12.78Q43.99 12.56 44.30 12.14L44.30 12.14L44.30 12.14Q44.60 11.72 44.77 11.13L44.77 11.13L44.77 11.13Q44.94 10.54 44.94 9.83L44.94 9.83L44.94 9.83Q44.94 9.13 44.77 8.55L44.77 8.55L44.77 8.55Q44.60 7.98 44.30 7.57L44.30 7.57L44.30 7.57Q43.99 7.15 43.55 6.92L43.55 6.92L43.55 6.92Q43.12 6.69 42.59 6.69ZM48.68 13.09L48.40 13.58L48.09 13.58L48.09 11.17L48.44 11.17L48.44 11.17Q48.99 13.15 50.43 13.15L50.43 13.15L50.43 13.15Q50.99 13.15 51.32 12.87L51.32 12.87L51.32 12.87Q51.65 12.60 51.65 12.04L51.65 12.04L51.65 12.04Q51.65 11.83 51.58 11.68L51.58 11.68L51.58 11.68Q51.52 11.54 51.34 11.38L51.34 11.38L51.34 11.38Q51.17 11.21 50.85 11.00L50.85 11.00L50.85 11.00Q50.54 10.79 50.02 10.47L50.02 10.47L50.02 10.47Q49.55 10.18 49.20 9.93L49.20 9.93L49.20 9.93Q48.85 9.67 48.61 9.41L48.61 9.41L48.61 9.41Q48.37 9.16 48.25 8.86L48.25 8.86L48.25 8.86Q48.13 8.57 48.13 8.18L48.13 8.18L48.13 8.18Q48.13 7.70 48.29 7.30L48.29 7.30L48.29 7.30Q48.45 6.90 48.73 6.62L48.73 6.62L48.73 6.62Q49.01 6.34 49.39 6.18L49.39 6.18L49.39 6.18Q49.77 6.02 50.22 6.02L50.22 6.02L50.22 6.02Q50.60 6.02 51.00 6.14L51.00 6.14L51.00 6.14Q51.41 6.26 51.72 6.45L51.72 6.45L52.00 6.16L52.26 6.16L52.26 8.18L51.90 8.18L51.90 8.18Q51.59 7.32 51.23 6.96L51.23 6.96L51.23 6.96Q50.86 6.59 50.33 6.59L50.33 6.59L50.33 6.59Q49.85 6.59 49.57 6.85L49.57 6.85L49.57 6.85Q49.28 7.10 49.28 7.55L49.28 7.55L49.28 7.55Q49.28 7.78 49.36 7.96L49.36 7.96L49.36 7.96Q49.43 8.13 49.60 8.30L49.60 8.30L49.60 8.30Q49.77 8.47 50.03 8.64L50.03 8.64L50.03 8.64Q50.29 8.82 50.65 9.04L50.65 9.04L50.65 9.04Q51.25 9.42 51.68 9.72L51.68 9.72L51.68 9.72Q52.11 10.01 52.37 10.30L52.37 10.30L52.37 10.30Q52.64 10.58 52.77 10.89L52.77 10.89L52.77 10.89Q52.89 11.20 52.89 11.59L52.89 11.59L52.89 11.59Q52.89 12.59 52.25 13.15L52.25 13.15L52.25 13.15Q51.60 13.72 50.55 13.72L50.55 13.72L50.55 13.72Q49.46 13.72 48.68 13.09L48.68 13.09Z"></path></g><!----><g data-v-423bf9ae="" id="d213f6ad-95c1-4ec2-86e2-a1077bc20dbd" transform="matrix(1.1111111640930176,0,0,1.1111111640930176,0.4340251386165619,0.4444417953491211)" stroke="none" fill="black"><path d="M27.159 78.945c7.414-3.59 18.067-11.203 29.313-22.434 8.445-8.435 15.599-17.303 20.143-24.972a56.044 56.044 0 0 0 2.458-4.595C72.288 18.454 61.855 13 50.167 13c-20.402 0-37 16.598-37 37 0 11.711 5.475 22.16 13.992 28.945zM50.543 86.99c20.107-.202 36.42-16.52 36.614-36.63-4.851 6.591-10.606 13.281-17.084 19.75-6.396 6.389-13.01 12.075-19.53 16.88z"></path><path d="M96.963 3.096c-6.135-6.127-20.19-2.853-36.331 7.128 4.798 1.168 9.25 3.151 13.203 5.914 4.457-1.828 8.616-1.82 10.253-.185 2.379 2.375 1.308 7.779-2.37 14.75l-.028-.048c-4.305 8.177-12.211 18.521-22.391 28.688C49.24 69.388 39.006 77.218 30.863 81.552l.026.016c-7.085 3.766-12.582 4.88-14.985 2.479-1.888-1.885-1.61-5.684.533-10.845-2.77-3.974-4.759-8.419-5.916-13.192C.476 76.178-3.015 90.867 3.031 96.905c9.555 9.542 38.331-3.721 64.269-29.625 25.938-25.903 39.219-54.642 29.663-64.184z"></path></g><!----></svg>